<svg xmlns="http://www.w3.org/2000/svg" xmlns:xlink="http://www.w3.org/1999/xlink" viewBox="0 0 24 24" width="24px" height="24px" fill="#502314" stroke="#502314" class="sc-kycm3h-2 sc-kycm3h-3 cnIanK hnwXMH"><path d="M12.002 19.002a.967.967 0 0 1-.713-.288.968.968 0 0 1-.287-.712v-5h-5a.967.967 0 0 1-.713-.288.968.968 0 0 1-.287-.712c0-.284.096-.521.287-.713a.967.967 0 0 1 .713-.287h5v-5c0-.284.096-.521.287-.713a.967.967 0 0 1 .713-.287c.283 0 .52.096.712.287.192.192.288.43.288.713v5h5c.283 0 .52.095.713.287.191.192.287.43.287.713s-.096.52-.287.712a.968.968 0 0 1-.713.288h-5v5c0 .283-.096.52-.288.712a.968.968 0 0 1-.712.288Z"></path></svg>