<svg xmlns="http://www.w3.org/2000/svg" width="46" height="45" fill="none" class="bk-menu-category__item-image"><g filter="url(#a)"><path fill="#FA0" d="M18.312 5.986c1.767-3.358 2.65-5.037 3.933-5.37a3 3 0 0 1 1.51 0c1.282.333 2.166 2.012 3.933 5.37l.073.138c.459.871.688 1.307 1.024 1.636a3 3 0 0 0 .769.547c.421.208.908.281 1.882.427 3.237.486 4.855.728 5.585 1.591a3 3 0 0 1 .707 2.028c-.035 1.13-1.151 2.326-3.385 4.72l-.166.177c-.675.723-1.012 1.084-1.213 1.514-.116.247-.197.51-.242.779-.077.468-.004.957.143 1.935.505 3.368.758 5.052.083 6.028a3 3 0 0 1-1.55 1.152c-1.13.363-2.67-.366-5.747-1.824l-.377-.178c-.97-.46-1.457-.69-1.97-.743a3 3 0 0 0-.607 0c-.514.052-1 .282-1.971.742l-.377.179c-3.078 1.458-4.617 2.187-5.747 1.824a3 3 0 0 1-1.55-1.152c-.675-.976-.422-2.66.083-6.028.147-.978.22-1.467.143-1.935a3 3 0 0 0-.242-.78c-.201-.429-.538-.79-1.213-1.513l-.166-.178c-2.233-2.393-3.35-3.59-3.385-4.719a3 3 0 0 1 .707-2.028c.73-.863 2.348-1.105 5.585-1.59.974-.147 1.461-.22 1.882-.428a3 3 0 0 0 .77-.547c.335-.329.564-.765 1.023-1.636z"></path></g><defs><filter id="a" width="45.461" height="48.23" x=".27" y="-3.481" color-interpolation-filters="sRGB" filterUnits="userSpaceOnUse"><feFlood flood-opacity="0" result="BackgroundImageFix"></feFlood><feColorMatrix in="SourceAlpha" result="hardAlpha" values="0 0 0 0 0 0 0 0 0 0 0 0 0 0 0 0 0 0 127 0"></feColorMatrix><feOffset dy="8"></feOffset><feGaussianBlur stdDeviation="4"></feGaussianBlur><feComposite in2="hardAlpha" operator="out"></feComposite><feColorMatrix values="0 0 0 0 0.807843 0 0 0 0 0.592157 0 0 0 0 0.168627 0 0 0 0.22 0"></feColorMatrix><feBlend in2="BackgroundImageFix" result="effect1_dropShadow_17001_43567"></feBlend><feBlend in="SourceGraphic" in2="effect1_dropShadow_17001_43567" result="shape"></feBlend><feColorMatrix in="SourceAlpha" result="hardAlpha" values="0 0 0 0 0 0 0 0 0 0 0 0 0 0 0 0 0 0 127 0"></feColorMatrix><feOffset dx="2" dy="2"></feOffset><feGaussianBlur stdDeviation="3"></feGaussianBlur><feComposite in2="hardAlpha" k2="-1" k3="1" operator="arithmetic"></feComposite><feColorMatrix values="0 0 0 0 1 0 0 0 0 0.891927 0 0 0 0 0.91138 0 0 0 0.4 0"></feColorMatrix><feBlend in2="shape" result="effect2_innerShadow_17001_43567"></feBlend><feColorMatrix in="SourceAlpha" result="hardAlpha" values="0 0 0 0 0 0 0 0 0 0 0 0 0 0 0 0 0 0 127 0"></feColorMatrix><feOffset dx="-4" dy="-4"></feOffset><feGaussianBlur stdDeviation="3"></feGaussianBlur><feComposite in2="hardAlpha" k2="-1" k3="1" operator="arithmetic"></feComposite><feColorMatrix values="0 0 0 0 0.80944 0 0 0 0 0.164365 0 0 0 0 0.280478 0 0 0 0.1 0"></feColorMatrix><feBlend in2="effect2_innerShadow_17001_43567" result="effect3_innerShadow_17001_43567"></feBlend><feColorMatrix in="SourceAlpha" result="hardAlpha" values="0 0 0 0 0 0 0 0 0 0 0 0 0 0 0 0 0 0 127 0"></feColorMatrix><feOffset dx="1" dy="1"></feOffset><feGaussianBlur stdDeviation="1"></feGaussianBlur><feComposite in2="hardAlpha" k2="-1" k3="1" operator="arithmetic"></feComposite><feColorMatrix values="0 0 0 0 1 0 0 0 0 0.942039 0 0 0 0 0.73654 0 0 0 0.5 0"></feColorMatrix><feBlend in2="effect3_innerShadow_17001_43567" result="effect4_innerShadow_17001_43567"></feBlend><feColorMatrix in="SourceAlpha" result="hardAlpha" values="0 0 0 0 0 0 0 0 0 0 0 0 0 0 0 0 0 0 127 0"></feColorMatrix><feOffset dx="-2" dy="-2"></feOffset><feGaussianBlur stdDeviation="2"></feGaussianBlur><feComposite in2="hardAlpha" k2="-1" k3="1" operator="arithmetic"></feComposite><feColorMatrix values="0 0 0 0 0.897363 0 0 0 0 0.367713 0 0 0 0 0.0697852 0 0 0 0.2 0"></feColorMatrix><feBlend in2="effect4_innerShadow_17001_43567" result="effect5_innerShadow_17001_43567"></feBlend><feColorMatrix in="SourceAlpha" result="hardAlpha" values="0 0 0 0 0 0 0 0 0 0 0 0 0 0 0 0 0 0 127 0"></feColorMatrix><feOffset dx="-1" dy="-1"></feOffset><feGaussianBlur stdDeviation=".5"></feGaussianBlur><feComposite in2="hardAlpha" k2="-1" k3="1" operator="arithmetic"></feComposite><feColorMatrix values="0 0 0 0 1 0 0 0 0 0.217269 0 0 0 0 0.217269 0 0 0 0.3 0"></feColorMatrix><feBlend in2="effect5_innerShadow_17001_43567" result="effect6_innerShadow_17001_43567"></feBlend></filter></defs></svg>